<svg viewBox="143 210.8562 567.9914 173.7371" width="5000" height="1529.3990366755554" xmlns="http://www.w3.org/2000/svg" xmlns:xlink="http://www.w3.org/1999/xlink" preserveAspectRatio="none"><defs></defs><style>.a6izo4zJpcolor {fill:#000000;fill-opacity:1;}.a6izo4zJpstrokeColor-str {stroke:#3F3F3F;stroke-opacity:1;}.aD6z1nYkhcolor {fill:#000000;fill-opacity:1;}.aD6z1nYkhstrokeColor-str {stroke:#3F3F3F;stroke-opacity:1;}</style><g opacity="1" transform="rotate(0 309.0086 323.1537)">
<svg width="212.9511" height="21.6939" x="309.0086" y="323.1537" version="1.1" preserveAspectRatio="none" viewBox="1 -30.92 392.6 40">
  <g transform="matrix(1 0 0 1 0 0)" class="a6izo4zJpcolor"><path id="id-6izo4zJp17" d="M12.08-29.76Q17-29.76 19.84-26.96Q22.68-24.16 22.68-20.66Q22.68-17.16 19.56-15.60L19.56-15.60L19.56-15.32Q19.96-15.12 20.74-14.46Q21.52-13.80 22-13.16L22-13.16Q23.32-11.48 23.32-9.32L23.32-9.32Q23.32-5.04 20.12-2.26Q16.92 0.52 12.08 0.52L12.08 0.52Q7.28 0.52 4.08-2.28L4.08-2.28Q2.88-3.36 1.96-5.12L1.96-5.12Q1.64-5.76 1.52-6.16L1.52-6.16L1.44-6.56Q1-7.88 1-8.72L1-8.72Q1-11.04 4.92-11.04L4.92-11.04Q6.52-11.04 7.04-10.64L7.04-10.64Q7.72-10.12 8.24-8.56L8.24-8.56Q8.64-7.28 10.44-6.64L10.44-6.64Q11.20-6.40 12.12-6.40L12.12-6.40Q14.24-6.40 15.24-7.26Q16.24-8.12 16.24-9.20Q16.24-10.28 15.26-11.10Q14.28-11.92 12.94-11.92Q11.60-11.92 11.12-12Q10.64-12.08 10.08-12.40L10.08-12.40Q9-12.92 9-15.48L9-15.48Q9-18.28 10.48-18.80L10.48-18.80Q11.16-19 12.56-19L12.56-19Q15.60-19 15.60-20.56L15.60-20.56Q15.60-21.40 14.80-22.16Q14-22.92 12.58-22.92Q11.16-22.92 10.32-22.44Q9.48-21.96 9.28-21.48L9.28-21.48L9.04-21Q8.12-19 6.40-19L6.40-19Q5.40-19 4.20-19.72L4.20-19.72Q2.20-20.88 2.20-22.40L2.20-22.40Q2.20-23.04 3.12-25.12L3.12-25.12Q3.28-25.48 4-26.38Q4.72-27.28 5.66-27.96Q6.60-28.64 8.30-29.20Q10-29.76 12.08-29.76L12.08-29.76Z M33.48-29.36L33.48-29.36L40.88-29.32Q46.68-29.32 51.08-25.14Q55.48-20.96 55.48-14.86Q55.48-8.76 51.18-4.40Q46.88-0.04 40.76-0.04L40.76-0.04L33.44-0.04Q31-0.04 30.40-1.04L30.40-1.04Q29.92-1.88 29.92-3.60L29.92-3.60L29.92-25.84Q29.92-26.80 29.98-27.24Q30.04-27.68 30.36-28.28L30.36-28.28Q30.92-29.36 33.48-29.36ZM40.88-7.12Q43.76-7.12 46.08-9.26Q48.40-11.40 48.40-14.64Q48.40-17.88 46.14-20.06Q43.88-22.24 40.84-22.24L40.84-22.24L37-22.24L37-7.12L40.88-7.12Z M97.84-23.40Q98.88-21.28 98.88-18.68Q98.88-16.08 97.84-13.98Q96.80-11.88 95.16-10.64L95.16-10.64Q91.84-8.08 88.28-8.08L88.28-8.08L83.28-8.08L83.28-3.56Q83.28-2.64 83.22-2.18Q83.16-1.72 82.84-1.12L82.84-1.12Q82.28-0.04 79.72-0.04L79.72-0.04Q76.92-0.04 76.44-1.52L76.44-1.52Q76.20-2.20 76.20-3.60L76.20-3.60L76.20-25.80Q76.20-26.72 76.26-27.18Q76.32-27.64 76.64-28.24L76.64-28.24Q77.20-29.32 79.76-29.32L79.76-29.32L88.32-29.32Q91.84-29.32 95.16-26.76L95.16-26.76Q96.80-25.52 97.84-23.40ZM88.32-15.16Q89.52-15.16 90.68-16.04Q91.84-16.92 91.84-18.68Q91.84-20.44 90.68-21.34Q89.52-22.24 88.28-22.24L88.28-22.24L83.28-22.24L83.28-15.16L88.32-15.16Z M119.80-20.84Q120.56-20.60 121.06-20.02Q121.56-19.44 121.56-18.16Q121.56-16.88 120.80-15.36Q120.04-13.84 118.60-13.84L118.60-13.84Q117.88-13.84 117.22-14.16Q116.56-14.48 115.48-14.48Q114.40-14.48 113.46-13.72Q112.52-12.96 112.52-11.88L112.52-11.88L112.52-3.48Q112.52-2.56 112.46-2.10Q112.40-1.64 112.08-1.04L112.08-1.04Q111.48 0 108.96 0L108.96 0Q107.04 0 106.20-0.68L106.20-0.68Q105.56-1.24 105.48-2.40L105.48-2.40Q105.48-2.80 105.48-3.56L105.48-3.56L105.48-17.60Q105.48-18.52 105.54-18.98Q105.60-19.44 105.88-20L105.88-20Q106.44-21.08 109.00-21.08L109.00-21.08Q111.40-21.08 112.00-20.16L112.00-20.16Q112.44-19.52 112.44-18.84L112.44-18.84Q112.64-19.12 113.02-19.52Q113.40-19.92 114.64-20.60Q115.88-21.28 116.82-21.28Q117.76-21.28 118.40-21.18Q119.04-21.08 119.80-20.84Z M127.76-3.52L127.76-17.56Q127.76-18.48 127.82-18.94Q127.88-19.40 128.16-20L128.16-20Q128.72-21.04 131.28-21.04L131.28-21.04Q133.20-21.04 134-20.36L134-20.36Q134.68-19.80 134.72-18.64L134.72-18.64Q134.76-18.24 134.76-17.48L134.76-17.48L134.76-3.48Q134.76-2.56 134.70-2.10Q134.64-1.64 134.32-1.04L134.32-1.04Q133.80 0 131.24 0L131.24 0Q128.72 0 128.16-1.08L128.16-1.08Q127.88-1.68 127.82-2.12Q127.76-2.56 127.76-3.52L127.76-3.52ZM134.34-24.98Q134.04-24.40 133.28-24.16Q132.52-23.92 131.26-23.92Q130-23.92 129.24-24.16Q128.48-24.40 128.18-25Q127.88-25.60 127.82-26.06Q127.76-26.52 127.76-27.44Q127.76-28.36 127.82-28.82Q127.88-29.28 128.16-29.84L128.16-29.84Q128.72-30.92 131.28-30.92L131.28-30.92Q133.80-30.92 134.32-29.84L134.32-29.84Q134.64-29.24 134.70-28.78Q134.76-28.32 134.76-27.40Q134.76-26.48 134.70-26.02Q134.64-25.56 134.34-24.98Z M153.68-21.08L153.68-21.08Q157.68-21.08 160.34-18.02Q163-14.96 163-10.56L163-10.56L163-3.52Q163-2.60 162.94-2.14Q162.88-1.68 162.60-1.12L162.60-1.12Q162.04-0.04 159.48-0.04L159.48-0.04Q156.64-0.04 156.20-1.52L156.20-1.52Q155.96-2.20 155.96-3.56L155.96-3.56L155.96-10.60Q155.96-12.24 155.02-13.16Q154.08-14.08 152.50-14.08Q150.92-14.08 149.94-13.12Q148.96-12.16 148.96-10.60L148.96-10.60L148.96-3.52Q148.96-2.60 148.90-2.14Q148.84-1.68 148.52-1.12L148.52-1.12Q148-0.04 145.44-0.04L145.44-0.04Q142.92-0.04 142.36-1.12L142.36-1.12Q142.08-1.72 142.02-2.18Q141.96-2.64 141.96-3.56L141.96-3.56L141.96-17.72Q141.96-18.60 142.02-19.06Q142.08-19.52 142.40-20.08L142.40-20.08Q142.96-21.08 145.48-21.08L145.48-21.08Q147.92-21.08 148.48-20.16L148.48-20.16Q148.88-19.48 148.88-18.52L148.88-18.52Q149.04-18.80 149.60-19.32Q150.16-19.84 150.68-20.16L150.68-20.16Q152.04-21.08 153.68-21.08Z M182.04-14L182.04-14L179.44-14.16L179.44-8.64Q179.44-7.56 179.78-7.08Q180.12-6.60 181.06-6.60Q182.00-6.60 182.50-6.54Q183.00-6.48 183.56-6.16L183.56-6.16Q184.48-5.64 184.48-3.48L184.48-3.48Q184.48-0.96 183.36-0.40L183.36-0.40Q182.76-0.12 182.30-0.06Q181.84 0 180.96 0L180.96 0Q176.80 0 174.64-1.88Q172.48-3.76 172.48-8.24L172.48-8.24L172.48-14.16Q171.72-14.04 170.84-14.04Q169.96-14.04 169.38-14.72Q168.80-15.40 168.80-17.04Q168.80-18.68 169.00-19.42Q169.20-20.16 169.56-20.48L169.56-20.48Q170.20-21 171.16-21L171.16-21L172.48-20.84L172.48-24.96Q172.48-25.88 172.54-26.32Q172.60-26.76 172.92-27.28L172.92-27.28Q173.44-28.28 176.00-28.28L176.00-28.28Q178.72-28.28 179.24-26.80L179.24-26.80Q179.44-26.16 179.44-24.76L179.44-24.76L179.44-20.84Q181.20-21 182.10-21Q183.00-21 183.46-20.94Q183.92-20.88 184.52-20.56L184.52-20.56Q185.56-20.04 185.56-17.48L185.56-17.48Q185.56-14.96 184.48-14.40L184.48-14.40Q183.88-14.12 183.42-14.06Q182.96-14 182.04-14Z M191.76-3.52L191.76-17.56Q191.76-18.48 191.82-18.94Q191.88-19.40 192.16-20L192.16-20Q192.72-21.04 195.28-21.04L195.28-21.04Q197.20-21.04 198.00-20.36L198.00-20.36Q198.68-19.80 198.72-18.64L198.72-18.64Q198.76-18.24 198.76-17.48L198.76-17.48L198.76-3.48Q198.76-2.56 198.70-2.10Q198.64-1.64 198.32-1.04L198.32-1.04Q197.80 0 195.24 0L195.24 0Q192.72 0 192.16-1.08L192.16-1.08Q191.88-1.68 191.82-2.12Q191.76-2.56 191.76-3.52L191.76-3.52ZM198.34-24.98Q198.04-24.40 197.28-24.16Q196.52-23.92 195.26-23.92Q194.00-23.92 193.24-24.16Q192.48-24.40 192.18-25Q191.88-25.60 191.82-26.06Q191.76-26.52 191.76-27.44Q191.76-28.36 191.82-28.82Q191.88-29.28 192.16-29.84L192.16-29.84Q192.72-30.92 195.28-30.92L195.28-30.92Q197.80-30.92 198.32-29.84L198.32-29.84Q198.64-29.24 198.70-28.78Q198.76-28.32 198.76-27.40Q198.76-26.48 198.70-26.02Q198.64-25.56 198.34-24.98Z M217.68-21.08L217.68-21.08Q221.68-21.08 224.34-18.02Q227-14.96 227-10.56L227-10.56L227-3.52Q227-2.60 226.94-2.14Q226.88-1.68 226.60-1.12L226.60-1.12Q226.04-0.04 223.48-0.04L223.48-0.04Q220.64-0.04 220.20-1.52L220.20-1.52Q219.96-2.20 219.96-3.56L219.96-3.56L219.96-10.60Q219.96-12.24 219.02-13.16Q218.08-14.08 216.50-14.08Q214.92-14.08 213.94-13.12Q212.96-12.16 212.96-10.60L212.96-10.60L212.96-3.52Q212.96-2.60 212.90-2.14Q212.84-1.68 212.52-1.12L212.52-1.12Q212-0.04 209.44-0.04L209.44-0.04Q206.92-0.04 206.36-1.12L206.36-1.12Q206.08-1.72 206.02-2.18Q205.96-2.64 205.96-3.56L205.96-3.56L205.96-17.72Q205.96-18.60 206.02-19.06Q206.08-19.52 206.40-20.08L206.40-20.08Q206.96-21.08 209.48-21.08L209.48-21.08Q211.92-21.08 212.48-20.16L212.48-20.16Q212.88-19.48 212.88-18.52L212.88-18.52Q213.04-18.80 213.60-19.32Q214.16-19.84 214.68-20.16L214.68-20.16Q216.04-21.08 217.68-21.08Z M247.56-1.44L247.56-2.64Q246.04-0.64 242.72-0.64Q239.40-0.64 236.50-3.70Q233.60-6.76 233.60-10.84Q233.60-14.92 236.52-18Q239.44-21.08 242.92-21.08L242.92-21.08Q244.28-21.08 245.40-20.58Q246.52-20.08 246.94-19.66Q247.36-19.24 247.60-18.88L247.60-18.88Q247.72-20 248.42-20.58Q249.12-21.16 250.68-21.16Q252.24-21.16 252.96-20.92Q253.68-20.68 253.98-20.10Q254.28-19.52 254.34-19.08Q254.40-18.64 254.40-17.72L254.40-17.72L254.40-1.16Q254.40 3.44 251.20 6.26Q248.00 9.08 244.00 9.08L244.00 9.08Q240.96 9.08 238.20 7.60Q235.44 6.12 235.44 4.92L235.44 4.92Q235.44 3.36 236.64 2.16L236.64 2.16Q237.40 1.32 237.82 1Q238.24 0.68 238.80 0.68Q239.36 0.68 239.96 1.16L239.96 1.16Q241.88 2.64 244.12 2.64L244.12 2.64Q245.64 2.64 246.60 1.44Q247.56 0.24 247.56-1.44L247.56-1.44ZM240.44-10.82Q240.44-9.52 241.46-8.48Q242.48-7.44 243.94-7.44Q245.40-7.44 246.36-8.50Q247.32-9.56 247.32-10.82Q247.32-12.08 246.40-13.18Q245.48-14.28 243.92-14.28Q242.36-14.28 241.40-13.20Q240.44-12.12 240.44-10.82Z M276.52-3.68L276.16-4.12Q275.12-5.40 275.12-6.42Q275.12-7.44 276.84-9.12L276.84-9.12Q277.84-10.08 278.96-10.08Q280.08-10.08 282.08-8.08L282.08-8.08Q282.64-7.40 283.68-6.78Q284.72-6.16 285.60-6.16L285.60-6.16Q289.32-6.16 289.32-9.20L289.32-9.20Q289.32-10.12 288.30-10.74Q287.28-11.36 285.76-11.64Q284.24-11.92 282.48-12.54Q280.72-13.16 279.20-14Q277.68-14.84 276.66-16.66Q275.64-18.48 275.64-21.04L275.64-21.04Q275.64-24.56 278.26-27.18Q280.88-29.80 285.40-29.80L285.40-29.80Q287.80-29.80 289.78-29.18Q291.76-28.56 292.52-27.92L292.52-27.92L293.52-27.16Q294.76-26 294.76-25.20Q294.76-24.40 293.80-23L293.80-23Q292.44-21 291-21L291-21Q290.16-21 288.92-21.80L288.92-21.80Q288.80-21.88 288.46-22.20Q288.12-22.52 287.84-22.72L287.84-22.72Q287-23.24 285.70-23.24Q284.40-23.24 283.54-22.62Q282.68-22 282.68-20.90Q282.68-19.80 283.70-19.12Q284.72-18.44 286.24-18.20Q287.76-17.96 289.56-17.46Q291.36-16.96 292.88-16.24Q294.40-15.52 295.42-13.74Q296.44-11.96 296.44-9.36Q296.44-6.76 295.40-4.78Q294.36-2.80 292.68-1.72L292.68-1.72Q289.44 0.40 285.76 0.40L285.76 0.40Q283.88 0.40 282.20-0.06Q280.52-0.52 279.48-1.20L279.48-1.20Q277.36-2.48 276.52-3.68L276.52-3.68Z M314.48-14L314.48-14L311.88-14.16L311.88-8.64Q311.88-7.56 312.22-7.08Q312.56-6.60 313.50-6.60Q314.44-6.60 314.94-6.54Q315.44-6.48 316-6.16L316-6.16Q316.92-5.64 316.92-3.48L316.92-3.48Q316.92-0.96 315.80-0.40L315.80-0.40Q315.20-0.12 314.74-0.06Q314.28 0 313.40 0L313.40 0Q309.24 0 307.08-1.88Q304.92-3.76 304.92-8.24L304.92-8.24L304.92-14.16Q304.16-14.04 303.28-14.04Q302.40-14.04 301.82-14.72Q301.24-15.40 301.24-17.04Q301.24-18.68 301.44-19.42Q301.64-20.16 302-20.48L302-20.48Q302.64-21 303.60-21L303.60-21L304.92-20.84L304.92-24.96Q304.92-25.88 304.98-26.32Q305.04-26.76 305.36-27.28L305.36-27.28Q305.88-28.28 308.44-28.28L308.44-28.28Q311.16-28.28 311.68-26.80L311.68-26.80Q311.88-26.16 311.88-24.76L311.88-24.76L311.88-20.84Q313.64-21 314.54-21Q315.44-21 315.90-20.94Q316.36-20.88 316.96-20.56L316.96-20.56Q318-20.04 318-17.48L318-17.48Q318-14.96 316.92-14.40L316.92-14.40Q316.32-14.12 315.86-14.06Q315.40-14 314.48-14Z M323.60-10.52Q323.60-15.32 326.96-18.44Q330.32-21.56 334.64-21.56Q338.96-21.56 342.28-18.46Q345.60-15.36 345.60-10.56L345.60-10.56Q345.60-7.24 343.88-4.66Q342.16-2.08 339.70-0.86Q337.24 0.36 334.60 0.36Q331.96 0.36 329.48-0.94Q327.00-2.24 325.30-4.78Q323.60-7.32 323.60-10.52L323.60-10.52ZM331.96-7.66Q333.24-6.68 334.56-6.68Q335.88-6.68 337.20-7.68Q338.52-8.68 338.52-10.64Q338.52-12.60 337.28-13.56Q336.04-14.52 334.60-14.52Q333.16-14.52 331.92-13.52Q330.68-12.52 330.68-10.58Q330.68-8.64 331.96-7.66Z M366.52-20.84Q367.28-20.60 367.78-20.02Q368.28-19.44 368.28-18.16Q368.28-16.88 367.52-15.36Q366.76-13.84 365.32-13.84L365.32-13.84Q364.60-13.84 363.94-14.16Q363.28-14.48 362.20-14.48Q361.12-14.48 360.18-13.72Q359.24-12.96 359.24-11.88L359.24-11.88L359.24-3.48Q359.24-2.56 359.18-2.10Q359.12-1.64 358.80-1.04L358.80-1.04Q358.20 0 355.68 0L355.68 0Q353.76 0 352.92-0.68L352.92-0.68Q352.28-1.24 352.20-2.40L352.20-2.40Q352.20-2.80 352.20-3.56L352.20-3.56L352.20-17.60Q352.20-18.52 352.26-18.98Q352.32-19.44 352.60-20L352.60-20Q353.16-21.08 355.72-21.08L355.72-21.08Q358.12-21.08 358.72-20.16L358.72-20.16Q359.16-19.52 359.16-18.84L359.16-18.84Q359.36-19.12 359.74-19.52Q360.12-19.92 361.36-20.60Q362.60-21.28 363.54-21.28Q364.48-21.28 365.12-21.18Q365.76-21.08 366.52-20.84Z M393.60-13.06Q393.60-10.60 392.38-9.42Q391.16-8.24 389.68-8.24L389.68-8.24L380.20-8.24Q380.20-7.12 381.52-6.36Q382.84-5.60 384.16-5.60L384.16-5.60Q386.48-5.60 387.80-6.08L387.80-6.08L388.24-6.24Q389.20-6.68 389.84-6.68L389.84-6.68Q391.12-6.68 392.04-4.88L392.04-4.88Q392.56-3.80 392.56-3.04L392.56-3.04Q392.56 0.52 384.04 0.52L384.04 0.52Q381.08 0.52 378.78-0.50Q376.48-1.52 375.20-3.20L375.20-3.20Q372.68-6.44 372.68-10.44L372.68-10.44Q372.68-15.48 375.94-18.50Q379.20-21.52 384.08-21.52L384.08-21.52Q389.64-21.52 392.24-17.60L392.24-17.60Q393.60-15.52 393.60-13.06ZM380.12-11.88L385.16-11.88Q386.68-11.88 386.68-13.16L386.68-13.16Q386.68-14.08 385.98-14.64Q385.28-15.20 383.98-15.20Q382.68-15.20 381.40-14.14Q380.12-13.08 380.12-11.88L380.12-11.88Z"/></g>
</svg>
</g><g opacity="1" transform="rotate(0 309.0086 272.2958)">
<svg width="401.9828" height="50.8579" x="309.0086" y="272.2958" version="1.1" preserveAspectRatio="none" viewBox="1.6 -31 319.63999999999993 40.44">
  <g transform="matrix(1 0 0 1 0 0)" class="aD6z1nYkhcolor"><path id="id-D6z1nYkh14" d="M20.54-28.10Q20.92-28.80 21.68-29.04Q22.44-29.28 23.58-29.28Q24.72-29.28 25.42-29.08Q26.12-28.88 26.46-28.60Q26.80-28.32 26.96-27.76L26.96-27.76Q27.20-27.12 27.20-25.72L27.20-25.72L27.20-3.52Q27.20-2.56 27.14-2.12Q27.08-1.68 26.76-1.08L26.76-1.08Q26.20 0 23.64 0L23.64 0Q22.08 0 21.48-0.24Q20.88-0.48 20.48-1L20.48-1Q11.48-13 8.64-16.68L8.64-16.68L8.64-3.52Q8.64-2.56 8.58-2.12Q8.52-1.68 8.20-1.08L8.20-1.08Q7.64 0 5.08 0L5.08 0Q2.60 0 2.04-1.08L2.04-1.08Q1.72-1.68 1.66-2.16Q1.60-2.64 1.60-3.56L1.60-3.56L1.60-25.88Q1.60-27.40 1.98-28.10Q2.36-28.80 3.12-29.04Q3.88-29.28 5.08-29.28Q6.28-29.28 6.98-29.06Q7.68-28.84 7.96-28.56L7.96-28.56Q8.12-28.44 8.88-27.52L8.88-27.52Q17.32-16.04 20.16-12.36L20.16-12.36L20.16-25.88Q20.16-27.40 20.54-28.10Z M30.60-10.52Q30.60-15.32 33.96-18.44Q37.32-21.56 41.64-21.56Q45.96-21.56 49.28-18.46Q52.60-15.36 52.60-10.56L52.60-10.56Q52.60-7.24 50.88-4.66Q49.16-2.08 46.70-0.86Q44.24 0.36 41.60 0.36Q38.96 0.36 36.48-0.94Q34-2.24 32.30-4.78Q30.60-7.32 30.60-10.52L30.60-10.52ZM38.96-7.66Q40.24-6.68 41.56-6.68Q42.88-6.68 44.20-7.68Q45.52-8.68 45.52-10.64Q45.52-12.60 44.28-13.56Q43.04-14.52 41.60-14.52Q40.16-14.52 38.92-13.52Q37.68-12.52 37.68-10.58Q37.68-8.64 38.96-7.66Z M65.92-7.04L65.92-7.04L72.76-7.04Q74.36-7.04 75.06-6.64Q75.76-6.24 76-5.48Q76.24-4.72 76.24-3.48Q76.24-2.24 76-1.48Q75.76-0.72 75.16-0.42Q74.56-0.12 74.10-0.06Q73.64 0 72.72 0L72.72 0L58.28 0Q56.88 0 55.84-1.04Q54.80-2.08 54.80-3.52Q54.80-4.96 55.84-5.98Q56.88-7 59.04-8.92Q61.20-10.84 62.96-12.38Q64.72-13.92 64.88-14.08L64.88-14.08L59.24-14.08Q56.96-14.08 56.36-14.84L56.36-14.84Q55.68-15.72 55.68-17.16Q55.68-18.60 55.88-19.30Q56.08-20 56.36-20.34Q56.64-20.68 57.16-20.88L57.16-20.88Q57.84-21.08 59.24-21.08L59.24-21.08L72.24-21.08Q73.64-21.08 74.68-20.08Q75.72-19.08 75.72-17.58Q75.72-16.08 74.52-14.92Q73.32-13.76 65.92-7.04Z M90.16-7.04L90.16-7.04L97-7.04Q98.60-7.04 99.30-6.64Q100-6.24 100.24-5.48Q100.48-4.72 100.48-3.48Q100.48-2.24 100.24-1.48Q100-0.72 99.40-0.42Q98.80-0.12 98.34-0.06Q97.88 0 96.96 0L96.96 0L82.52 0Q81.12 0 80.08-1.04Q79.04-2.08 79.04-3.52Q79.04-4.96 80.08-5.98Q81.12-7 83.28-8.92Q85.44-10.84 87.20-12.38Q88.96-13.92 89.12-14.08L89.12-14.08L83.48-14.08Q81.20-14.08 80.60-14.84L80.60-14.84Q79.92-15.72 79.92-17.16Q79.92-18.60 80.12-19.30Q80.32-20 80.60-20.34Q80.88-20.68 81.40-20.88L81.40-20.88Q82.08-21.08 83.48-21.08L83.48-21.08L96.48-21.08Q97.88-21.08 98.92-20.08Q99.96-19.08 99.96-17.58Q99.96-16.08 98.76-14.92Q97.56-13.76 90.16-7.04Z M103.88-8.44L103.88-27.48Q103.88-28.40 103.94-28.86Q104.00-29.32 104.28-29.92L104.28-29.92Q104.84-31 107.40-31L107.40-31Q109.84-31 110.44-29.92L110.44-29.92Q110.76-29.32 110.82-28.84Q110.88-28.36 110.88-27.44L110.88-27.44L110.88-8.92Q110.88-7.48 111.12-7.10Q111.36-6.72 112.18-6.72Q113.00-6.72 113.28-6.66Q113.56-6.60 113.96-6.32L113.96-6.32Q114.76-5.80 114.76-3.48L114.76-3.48Q114.76-0.96 113.96-0.40L113.96-0.40Q112.92 0.32 109.00-0.16L109.00-0.16Q105.92-0.56 105.00-2.20L105.00-2.20Q103.88-4.16 103.88-8.44L103.88-8.44Z M137.68-13.06Q137.68-10.60 136.46-9.42Q135.24-8.24 133.76-8.24L133.76-8.24L124.28-8.24Q124.28-7.12 125.60-6.36Q126.92-5.60 128.24-5.60L128.24-5.60Q130.56-5.60 131.88-6.08L131.88-6.08L132.32-6.24Q133.28-6.68 133.92-6.68L133.92-6.68Q135.20-6.68 136.12-4.88L136.12-4.88Q136.64-3.80 136.64-3.04L136.64-3.04Q136.64 0.52 128.12 0.52L128.12 0.52Q125.16 0.52 122.86-0.50Q120.56-1.52 119.28-3.20L119.28-3.20Q116.76-6.44 116.76-10.44L116.76-10.44Q116.76-15.48 120.02-18.50Q123.28-21.52 128.16-21.52L128.16-21.52Q133.72-21.52 136.32-17.60L136.32-17.60Q137.68-15.52 137.68-13.06ZM124.20-11.88L129.24-11.88Q130.76-11.88 130.76-13.16L130.76-13.16Q130.76-14.08 130.06-14.64Q129.36-15.20 128.06-15.20Q126.76-15.20 125.48-14.14Q124.20-13.08 124.20-11.88L124.20-11.88Z M168.92-27.24L168.92-27.24L179.72-4.92Q180.40-3.56 180.40-2.88L180.40-2.88Q180.40-1.44 178.08-0.28L178.08-0.28Q176.72 0.40 175.94 0.40Q175.16 0.40 174.66 0.04Q174.16-0.32 173.94-0.72Q173.72-1.12 173.32-1.92L173.32-1.92L171.24-6.24L160.16-6.24L158.08-1.92Q157.68-1.12 157.46-0.76Q157.24-0.40 156.74-0.02Q156.24 0.36 155.46 0.36Q154.68 0.36 153.32-0.32L153.32-0.32Q151-1.44 151-2.88L151-2.88Q151-3.56 151.68-4.92L151.68-4.92L162.48-27.28Q162.92-28.20 163.82-28.76Q164.72-29.32 165.72-29.32L165.72-29.32Q167.88-29.32 168.92-27.24ZM168.36-12.16L165.68-17.64L163.04-12.16L168.36-12.16Z M182.60-8.44L182.60-27.48Q182.60-28.40 182.66-28.86Q182.72-29.32 183-29.92L183-29.92Q183.56-31 186.12-31L186.12-31Q188.56-31 189.16-29.92L189.16-29.92Q189.48-29.32 189.54-28.84Q189.60-28.36 189.60-27.44L189.60-27.44L189.60-8.92Q189.60-7.48 189.84-7.10Q190.08-6.72 190.90-6.72Q191.72-6.72 192-6.66Q192.28-6.60 192.68-6.32L192.68-6.32Q193.48-5.80 193.48-3.48L193.48-3.48Q193.48-0.96 192.68-0.40L192.68-0.40Q191.64 0.32 187.72-0.16L187.72-0.16Q184.64-0.56 183.72-2.20L183.72-2.20Q182.60-4.16 182.60-8.44L182.60-8.44Z M202.28-10.54Q202.28-8.84 203.40-7.90Q204.52-6.96 205.78-6.96Q207.04-6.96 208.14-7.70Q209.24-8.44 209.92-8.44L209.92-8.44Q211.12-8.44 212.84-6.32L212.84-6.32Q213.76-5.16 213.76-4.24L213.76-4.24Q213.76-2.72 211.56-1.40L211.56-1.40Q209.28 0.20 205.96 0.20L205.96 0.20Q202.24 0.20 198.80-2.48L198.80-2.48Q197.16-3.76 196.12-5.90Q195.08-8.04 195.08-10.62Q195.08-13.20 196.12-15.30Q197.16-17.40 198.80-18.68L198.80-18.68Q202.12-21.32 205.88-21.32L205.88-21.32Q207.40-21.32 208.84-20.90Q210.28-20.48 210.96-20.08L210.96-20.08L211.60-19.68Q212.32-19.20 212.72-18.92L212.72-18.92Q213.76-18.12 213.76-17.10Q213.76-16.08 212.92-14.80L212.92-14.80Q211.48-12.60 210.16-12.60L210.16-12.60Q209.40-12.60 208-13.48L208-13.48Q207.28-14.16 205.94-14.16Q204.60-14.16 203.44-13.20Q202.28-12.24 202.28-10.54Z M228.60-21L228.60-21Q232.60-21 235.26-17.96Q237.92-14.92 237.92-10.52L237.92-10.52L237.92-3.48Q237.92-2.56 237.86-2.10Q237.80-1.64 237.48-1.04L237.48-1.04Q236.96 0 234.40 0L234.40 0Q231.96 0 231.36-1.04L231.36-1.04Q231.04-1.64 230.98-2.12Q230.92-2.60 230.92-3.56L230.92-3.56L230.92-10.56Q230.92-12.20 230.00-13.12Q229.08-14.04 227.66-14.04Q226.24-14.04 225.16-13.18Q224.08-12.32 223.92-11.24L223.92-11.24L223.92-3.48Q223.92-2.56 223.86-2.10Q223.80-1.64 223.48-1.04L223.48-1.04Q222.96 0 220.40 0L220.40 0Q217.88 0 217.32-1.08L217.32-1.08Q217.04-1.68 216.98-2.12Q216.92-2.56 216.92-3.52L216.92-3.52L216.92-27.44Q216.92-28.36 216.98-28.82Q217.04-29.28 217.32-29.84L217.32-29.84Q217.88-30.92 220.44-30.92L220.44-30.92Q222.96-30.92 223.48-29.84L223.48-29.84Q223.80-29.24 223.86-28.78Q223.92-28.32 223.92-27.40L223.92-27.40L223.92-18.56Q225.92-21 228.60-21Z M262.24-13.06Q262.24-10.60 261.02-9.42Q259.80-8.24 258.32-8.24L258.32-8.24L248.84-8.24Q248.84-7.12 250.16-6.36Q251.48-5.60 252.80-5.60L252.80-5.60Q255.12-5.60 256.44-6.08L256.44-6.08L256.88-6.24Q257.84-6.68 258.48-6.68L258.48-6.68Q259.76-6.68 260.68-4.88L260.68-4.88Q261.20-3.80 261.20-3.04L261.20-3.04Q261.20 0.52 252.68 0.52L252.68 0.52Q249.72 0.52 247.42-0.50Q245.12-1.52 243.84-3.20L243.84-3.20Q241.32-6.44 241.32-10.44L241.32-10.44Q241.32-15.48 244.58-18.50Q247.84-21.52 252.72-21.52L252.72-21.52Q258.28-21.52 260.88-17.60L260.88-17.60Q262.24-15.52 262.24-13.06ZM248.76-11.88L253.80-11.88Q255.32-11.88 255.32-13.16L255.32-13.16Q255.32-14.08 254.62-14.64Q253.92-15.20 252.62-15.20Q251.32-15.20 250.04-14.14Q248.76-13.08 248.76-11.88L248.76-11.88Z M272.52-18.28L272.52-18.28Q274.40-21.12 277.04-21.12L277.04-21.12Q281.12-21.12 283.12-17.64L283.12-17.64Q283.56-18.24 284.18-18.90Q284.80-19.56 286.16-20.34Q287.52-21.12 288.96-21.12L288.96-21.12Q292.16-21.12 294.32-18.66Q296.48-16.20 296.48-10.52L296.48-10.52L296.48-3.52Q296.48-2.60 296.42-2.14Q296.36-1.68 296.04-1.08L296.04-1.08Q295.52 0 292.96 0L292.96 0Q290.44 0 289.88-1.12L289.88-1.12Q289.60-1.72 289.54-2.18Q289.48-2.64 289.48-3.56L289.48-3.56L289.48-10.56Q289.48-14.04 287-14.04L287-14.04Q285.60-14.04 285.10-13.12Q284.60-12.20 284.60-10.52L284.60-10.52L284.60-3.52Q284.60-2.56 284.54-2.12Q284.48-1.68 284.16-1.08L284.16-1.08Q283.60 0 281.04 0L281.04 0Q278.52 0 277.96-1.12L277.96-1.12Q277.68-1.72 277.62-2.18Q277.56-2.64 277.56-3.56L277.56-3.56L277.56-10.56Q277.56-14.04 275.08-14.04L275.08-14.04Q272.68-14.04 272.68-10.56L272.68-10.56L272.68-3.48Q272.68-2.56 272.62-2.10Q272.56-1.64 272.24-1.04L272.24-1.04Q271.64 0 269.12 0L269.12 0Q266.60 0 266.04-1.08L266.04-1.08Q265.76-1.68 265.70-2.12Q265.64-2.56 265.64-3.52L265.64-3.52L265.64-17.60Q265.64-18.52 265.70-18.98Q265.76-19.44 266.08-20L266.08-20Q266.68-21.08 268.92-21.08Q271.16-21.08 271.84-20.36Q272.52-19.64 272.52-18.28Z M318.88-20.84L318.88-20.84Q321.24-19.80 321.24-18.32L321.24-18.32Q321.24-17.60 320.92-16.96Q320.60-16.32 320.60-16.28L320.60-16.28L310.12 7.16Q309.80 7.92 309.58 8.32Q309.36 8.72 308.88 9.08Q308.40 9.44 307.68 9.44Q306.96 9.44 305.56 8.84L305.56 8.84Q303.20 7.80 303.20 6.36L303.20 6.36Q303.20 5.40 307.04-2.80L307.04-2.80L299.08-16.20Q298.28-17.52 298.28-18.16L298.28-18.16Q298.28-19.44 300.44-20.72L300.44-20.72Q301.80-21.52 302.56-21.52Q303.32-21.52 303.80-21.20Q304.28-20.88 304.50-20.54Q304.72-20.20 306.70-16.82Q308.68-13.44 310.48-10.52L310.48-10.52Q310.68-11.16 312.64-15.46Q314.60-19.76 314.74-20.04Q314.88-20.32 315.20-20.72L315.20-20.72Q315.72-21.40 316.66-21.40Q317.60-21.40 318.88-20.84Z"/></g>
</svg>
</g><g opacity="1" transform="rotate(0 143 210.8562)">
<svg width="152" height="173.7371" x="143" y="210.8562" version="1.1" preserveAspectRatio="none" viewBox="30.075000762939453 27.226001739501953 39.85100173950195 45.549991607666016">
  <g transform="matrix(1 0 0 1 0 0)" style="fill:#000000;fill-opacity:1;"><path d="M69.926,39.362c0-0.402-0.161-0.781-0.438-1.059c-0.093-0.093-0.197-0.174-0.313-0.241  c-0.001-0.001-0.002-0.001-0.003-0.001L50.749,27.426c-0.017-0.01-0.036-0.013-0.054-0.022c-0.082-0.043-0.167-0.078-0.258-0.105  c-0.028-0.009-0.056-0.02-0.084-0.026c-0.114-0.028-0.231-0.047-0.354-0.047s-0.24,0.019-0.354,0.047  c-0.028,0.007-0.056,0.018-0.084,0.026c-0.091,0.027-0.176,0.063-0.258,0.105c-0.018,0.01-0.036,0.013-0.054,0.022L30.825,38.063  c-0.464,0.268-0.75,0.763-0.75,1.299v21.275c0,0.536,0.286,1.031,0.75,1.299l18.426,10.639c0.232,0.134,0.491,0.201,0.75,0.201  s0.518-0.067,0.75-0.201l18.424-10.639c0.464-0.268,0.75-0.763,0.75-1.299V39.37C69.925,39.367,69.926,39.365,69.926,39.362z   M44.104,53.404c-0.414-0.719-1.332-0.963-2.049-0.549l-8.979,5.185V41.959l15.426,8.907v17.812l-13.926-8.041l8.979-5.184  C44.272,55.039,44.518,54.122,44.104,53.404z M48.499,31.323V41.69c0,0.828,0.672,1.5,1.5,1.5s1.5-0.672,1.5-1.5V31.323  l13.926,8.038l-15.424,8.905l-14.996-8.657l-0.43-0.248L48.499,31.323z M51.501,50.866l15.424-8.905v16.078l-8.979-5.184  c-0.717-0.414-1.635-0.17-2.049,0.549c-0.414,0.718-0.169,1.635,0.549,2.049l8.979,5.184l-13.924,8.04V50.866z"></path></g>
</svg>
</g></svg>